<?xml version="1.0" encoding="utf-8"?>
<!-- Generator: Adobe Illustrator 24.1.1, SVG Export Plug-In . SVG Version: 6.00 Build 0)  -->
<svg version="1.1" id="Capa_1" xmlns="http://www.w3.org/2000/svg" xmlns:xlink="http://www.w3.org/1999/xlink" x="0px" y="0px"
	 viewBox="0 0 520 520" style="enable-background:new 0 0 520 520;" xml:space="preserve">
<style type="text/css">
	.st0{fill:#B2F0FB;}
	.st1{fill:none;stroke:#B2F0FB;stroke-width:20;stroke-linecap:round;stroke-miterlimit:10;}
	.st2{fill:none;stroke:#B2F0FB;stroke-width:20;stroke-miterlimit:10;}
</style>
<path class="st0" d="M337.3,47.9c-24.8,0-46.3-14.5-56.3-35.4h-29.2c-10,20.9-31.4,35.4-56.3,35.4c-9.3,0-18-2-25.9-5.6v102.4
	c0,74.9,96.8,100.4,96.8,100.4s96.8-25.6,96.8-100.4V42.3C355.3,45.9,346.5,47.9,337.3,47.9z M306.6,113.6L270.9,156
	c-1.8,2.1-4.4,3.4-7.2,3.5c-0.1,0-0.3,0-0.4,0h0c-2.6,0-5.2-1-7-2.9l-17.9-17.8c-3.9-3.9-3.9-10.2,0-14.1c3.9-3.9,10.2-3.9,14.1,0
	l10.2,10.1l28.7-34.1c3.6-4.2,9.9-4.8,14.1-1.2C309.6,103.1,310.2,109.4,306.6,113.6z"/>
<path class="st1" d="M383.2,140.4h87c20.8,0,37.8,17,37.8,37.8v284c0,20.8-17,37.8-37.8,37.8H50.8C30,500,13,483,13,462.2v-284
	c0-20.8,17-37.8,37.8-37.8h98.8"/>
<line class="st1" x1="13" y1="215" x2="178" y2="215"/>
<line class="st1" x1="352" y1="215" x2="507" y2="215"/>
<line class="st2" x1="13" y1="273" x2="508" y2="273"/>
<path class="st2" d="M178,431H89c-6.6,0-12-5.4-12-12v-61c0-6.6,5.4-12,12-12h89c6.6,0,12,5.4,12,12v61C190,425.6,184.6,431,178,431
	z"/>
<circle class="st2" cx="390.3" cy="388.5" r="49.5"/>
</svg>
